{
DisplayStrings = (
/tml_Na
);
copyright = "Licensed under the SIL Open Font License 1.1 (see file OFL.txt)";
customParameters = (
{
name = glyphOrder;
value = (
    "tm_A",
    "tm_Aa",
    "tm_Ai",
    "tm_Au",
    "tm_Ca",
    "tm_E",
    "tm_Ee",
    "tm_I",
    "tm_Ii",
    "tm_Ja",
    "tm_Ka",
    "tm_La",
    "tm_Lla",
    "tm_Llla",
    "tm_Ma",
    "tm_Na",
    "tm_Nga",
    "tm_Nna",
    "tm_Nnna",
    "tm_Nya",
    "tm_O",
    "tm_Oo",
    "tm_Pa",
    "tm_Ra",
    "tm_Rra",
    "tm_Sha",
    "tm_Ssa",
    "tm_Ta",
    "tm_Tta",
    "tm_U",
    "tm_Uu",
    "tm_Va",
    "tm_Visarga",
    "tm_Ya",
    "tm_Seven",
    "tm_Naal",
    "tm_VowelAa"
);
},
{
name = note;
value = "";
},
{
name = openTypeNameVersion;
value = "Version 2.5.0";
},
{
name = openTypeOS2CodePageRanges;
value = (
    0
);
},
{
name = openTypeOS2FamilyClass;
value = (
    0,
    0
);
},
{
name = openTypeOS2Panose;
value = (
    2,
    0,
    6,
    0,
    0,
    0,
    0,
    0,
    0,
    0
);
},
{
name = openTypeOS2StrikeoutPosition;
value = 307;
},
{
name = openTypeOS2StrikeoutSize;
value = 61;
},
{
name = openTypeOS2SubscriptXOffset;
value = 0;
},
{
name = openTypeOS2SubscriptXSize;
value = 861;
},
{
name = openTypeOS2SubscriptYOffset;
value = 246;
},
{
name = openTypeOS2SubscriptYSize;
value = 799;
},
{
name = openTypeOS2SuperscriptXOffset;
value = 0;
},
{
name = openTypeOS2SuperscriptXSize;
value = 861;
},
{
name = openTypeOS2SuperscriptYOffset;
value = 615;
},
{
name = openTypeOS2SuperscriptYSize;
value = 799;
},
{
name = openTypeOS2Type;
value = (
);
},
{
name = openTypeOS2UnicodeRanges;
value = (
    0,
    1,
    15,
    20,
    31,
    33,
    38,
    45
);
},
{
name = openTypeOS2VendorID;
value = "ACE ";
}
);
date = "2015-06-23 02:31:59 +0000";
familyName = "ayanna-tamil";
featurePrefixes = (
{

glyphs = (
{
glyphname = tml_A;
layers = (
{
layerId = "D3669537-663F-4203-8192-BEB274270EE9";
name = Light;
paths = (
{
closed = 1;
nodes = (
"690 -119 LINE",
"690 521 LINE",
"726 521 LINE",
"726 -119 LINE"
);
},
{
closed = 1;
nodes = (
"50 64 CURVE SMOOTH",
"50 167 OFFCURVE",
"118 215 OFFCURVE",
"217 215 CURVE SMOOTH",
"698 215 LINE",
"698 181 LINE",
"217 181 LINE SMOOTH",
"135 181 OFFCURVE",
"86 145 OFFCURVE",
"86 64 CURVE SMOOTH",
"86 -63 OFFCURVE",
"203 -100 OFFCURVE",
"298 -100 CURVE SMOOTH",
"421 -100 OFFCURVE",
"542 -11 OFFCURVE",
"542 198 CURVE SMOOTH",
"542 333 OFFCURVE",
"490 499 OFFCURVE",
"346 499 CURVE SMOOTH",
"304 499 OFFCURVE",
"263 471 OFFCURVE",
"263 408 CURVE SMOOTH",
"263 362 OFFCURVE",
"287 322 OFFCURVE",
"337 322 CURVE SMOOTH",
"394 322 OFFCURVE",
"411 360 OFFCURVE",
"412 409 CURVE SMOOTH",
"412 442 OFFCURVE",
"395 509 OFFCURVE",
"334 498 CURVE",
"368 527 LINE",
"438 511 OFFCURVE",
"448 452 OFFCURVE",
"448 409 CURVE SMOOTH",
"448 328 OFFCURVE",
"400 288 OFFCURVE",
"336 288 CURVE SMOOTH",
"267 288 OFFCURVE",
"227 340 OFFCURVE",
"227 408 CURVE SMOOTH",
"227 491 OFFCURVE",
"281 536 OFFCURVE",
"348 536 CURVE SMOOTH",
"508 537 OFFCURVE",
"578 354 OFFCURVE",
"579 199 CURVE SMOOTH",
"580 8 OFFCURVE",
"476 -134 OFFCURVE",
"297 -134 CURVE SMOOTH",
"133 -134 OFFCURVE",
"50 -49 OFFCURVE"
);
}
);
width = 796;
}
);
unicode = 0B85;
},
{
glyphname = tml_Aa;
layers = (
{
components = (
{
name = tml_A;
transform = "{1, 0, 0, 1, -1, 0}";
}
);
layerId = "D3669537-663F-4203-8192-BEB274270EE9";
name = Light;
paths = (
{
closed = 1;
nodes = (
"553 -130 CURVE",
"585 -126 LINE",
"597 -277 OFFCURVE",
"675 -341 OFFCURVE",
"805 -329 CURVE SMOOTH",
"912 -320 OFFCURVE",
"960 -219 OFFCURVE",
"960 -114 CURVE SMOOTH",
"960 -5 OFFCURVE",
"928 88 OFFCURVE",
"838 88 CURVE SMOOTH",
"756 88 OFFCURVE",
"727 29 OFFCURVE",
"726 -20 CURVE",
"690 -53 LINE",
"688 62 OFFCURVE",
"746 122 OFFCURVE",
"836 122 CURVE SMOOTH",
"956 122 OFFCURVE",
"994 5 OFFCURVE",
"994 -110 CURVE SMOOTH",
"994 -257 OFFCURVE",
"925 -350 OFFCURVE",
"808 -361 CURVE SMOOTH",
"703 -370 OFFCURVE",
"572 -344 OFFCURVE"
);
}
);
width = 1024;
}
);
unicode = 0B86;
},
{
glyphname = tml_I;
layers = (
{
layerId = "D3669537-663F-4203-8192-BEB274270EE9";
name = Light;
paths = (
{
closed = 1;
nodes = (
"73 49 CURVE SMOOTH",
"72 250 OFFCURVE",
"286 280 OFFCURVE",
"427 280 CURVE SMOOTH",
"575 280 OFFCURVE",
"768 215 OFFCURVE",
"768 49 CURVE SMOOTH",
"768 -31 OFFCURVE",
"741 -144 OFFCURVE",
"590 -144 CURVE SMOOTH",
"327 -144 OFFCURVE",
"185 153 OFFCURVE",
"185 419 CURVE SMOOTH",
"185 633 OFFCURVE",
"302 768 OFFCURVE",
"508 766 CURVE SMOOTH",
"754 764 OFFCURVE",
"866 561 OFFCURVE",
"866 234 CURVE SMOOTH",
"866 154 OFFCURVE",
"866 -58 OFFCURVE",
"866 -118 CURVE",
"828 -118 LINE",
"829 -66 OFFCURVE",
"830 159 OFFCURVE",
"830 253 CURVE SMOOTH",
"829 547 OFFCURVE",
"717 731 OFFCURVE",
"504 730 CURVE SMOOTH",
"350 730 OFFCURVE",
"222 639 OFFCURVE",
"222 421 CURVE SMOOTH",
"221 128 OFFCURVE",
"386 -106 OFFCURVE",
"590 -106 CURVE SMOOTH",
"717 -106 OFFCURVE",
"733 -10 OFFCURVE",
"733 49 CURVE SMOOTH",
"733 147 OFFCURVE",
"632 241 OFFCURVE",
"429 241 CURVE SMOOTH",
"207 241 OFFCURVE",
"109 161 OFFCURVE",
"109 49 CURVE SMOOTH",
"109 -41 OFFCURVE",
"159 -99 OFFCURVE",
"265 -99 CURVE SMOOTH",
"426 -99 OFFCURVE",
"567 40 OFFCURVE",
"608 288 CURVE SMOOTH",
"631 428 OFFCURVE",
"598 577 OFFCURVE",
"461 576 CURVE SMOOTH",
"413 576 OFFCURVE",
"381 529 OFFCURVE",
"381 471 CURVE SMOOTH",
"381 414 OFFCURVE",
"413 367 OFFCURVE",
"463 367 CURVE SMOOTH",
"507 367 OFFCURVE",
"539 398 OFFCURVE",
"539 464 CURVE SMOOTH",
"539 546 OFFCURVE",
"495 576 OFFCURVE",
"462 576 CURVE",
"540 579 LINE",
"565 538 OFFCURVE",
"576 498 OFFCURVE",
"576 463 CURVE SMOOTH",
"576 383 OFFCURVE",
"535 327 OFFCURVE",
"463 327 CURVE SMOOTH",
"396 327 OFFCURVE",
"345 382 OFFCURVE",
"344 465 CURVE SMOOTH",
"343 558 OFFCURVE",
"394 616 OFFCURVE",
"463 616 CURVE SMOOTH",
"616 615 OFFCURVE",
"665 451 OFFCURVE",
"643 286 CURVE SMOOTH",
"611 22 OFFCURVE",
"428 -144 OFFCURVE",
"275 -144 CURVE SMOOTH",
"130 -144 OFFCURVE",
"74 -62 OFFCURVE"
);
}
);
width = 975;
}
);
unicode = 0B87;
},
{
color = 6;
glyphname = tml_Ii;
layers = (
{
layerId = "D3669537-663F-4203-8192-BEB274270EE9";
name = Light;
paths = (
{
closed = 1;
nodes = (
"207 277 CURVE SMOOTH",
"207 259 OFFCURVE",
"222 244 OFFCURVE",
"240 244 CURVE SMOOTH",
"258 244 OFFCURVE",
"274 259 OFFCURVE",
"274 277 CURVE SMOOTH",
"274 295 OFFCURVE",
"258 310 OFFCURVE",
"240 310 CURVE SMOOTH",
"222 310 OFFCURVE",
"207 295 OFFCURVE"
);
},
{
closed = 1;
nodes = (
"422 277 CURVE SMOOTH",
"422 259 OFFCURVE",
"438 244 OFFCURVE",
"456 244 CURVE SMOOTH",
"474 244 OFFCURVE",
"489 259 OFFCURVE",
"489 277 CURVE SMOOTH",
"489 295 OFFCURVE",
"474 310 OFFCURVE",
"456 310 CURVE SMOOTH",
"438 310 OFFCURVE",
"422 295 OFFCURVE"
);
},
{
closed = 1;
nodes = (
"338 0 LINE",
"339 530 LINE",
"375 530 LINE",
"374 0 LINE"
);
},
{
closed = 1;
nodes = (
"70 0 LINE",
"71 550 LINE",
"512 550 LINE",
"512 515 LINE",
"107 515 LINE",
"106 0 LINE"
);
}
);
width = 542;
}
);
unicode = 0B88;
userData = {
com.schriftgestaltung.Glyphs.ColorIndex = 6;
public.markColor = "0,0.67,0.91,1";
};
},
{
color = 6;
glyphname = tml_E;
layers = (
{
layerId = "D3669537-663F-4203-8192-BEB274270EE9";
name = Light;
paths = (
{
closed = 1;
nodes = (
"40 248 CURVE SMOOTH",
"40 419 OFFCURVE",
"119 545 OFFCURVE",
"292 545 CURVE SMOOTH",
"291 510 LINE SMOOTH",
"140 510 OFFCURVE",
"77 400 OFFCURVE",
"77 248 CURVE SMOOTH",
"77 116 OFFCURVE",
"108 18 OFFCURVE",
"181 18 CURVE SMOOTH",
"245 18 OFFCURVE",
"268 93 OFFCURVE",
"268 170 CURVE SMOOTH",
"268 235 OFFCURVE",
"242 312 OFFCURVE",
"175 312 CURVE SMOOTH",
"109 312 OFFCURVE",
"74 236 OFFCURVE",
"83 157 CURVE",
"60 183 LINE",
"61 287 OFFCURVE",
"110 347 OFFCURVE",
"175 347 CURVE SMOOTH",
"257 347 OFFCURVE",
"304 265 OFFCURVE",
"304 170 CURVE SMOOTH",
"304 65 OFFCURVE",
"266 -17 OFFCURVE",
"181 -17 CURVE SMOOTH",
"85 -17 OFFCURVE",
"40 95 OFFCURVE"
);
},
{
closed = 1;
nodes = (
"277 510 LINE",
"283 545 LINE",
"556 545 LINE",
"556 510 LINE",
"446 510 LINE",
"445 0 LINE",
"409 0 LINE",
"410 510 LINE"
);
}
);
width = 596;
}
);
unicode = 0B8E;
userData = {
com.schriftgestaltung.Glyphs.ColorIndex = 6;
public.markColor = "0,0.67,0.91,1";
};
},
{
color = 6;
glyphname = tml_Ee;
layers = (
{
layerId = "D3669537-663F-4203-8192-BEB274270EE9";
name = Light;
paths = (
{
closed = 1;
nodes = (
"40 248 CURVE SMOOTH",
"40 419 OFFCURVE",
"119 545 OFFCURVE",
"292 545 CURVE SMOOTH",
"291 510 LINE SMOOTH",
"140 510 OFFCURVE",
"77 400 OFFCURVE",
"77 248 CURVE SMOOTH",
"77 116 OFFCURVE",
"108 18 OFFCURVE",
"181 18 CURVE SMOOTH",
"245 18 OFFCURVE",
"268 93 OFFCURVE",
"268 170 CURVE SMOOTH",
"268 235 OFFCURVE",
"242 312 OFFCURVE",
"175 312 CURVE SMOOTH",
"109 312 OFFCURVE",
"74 236 OFFCURVE",
"83 157 CURVE",
"60 183 LINE",
"61 287 OFFCURVE",
"110 347 OFFCURVE",
"175 347 CURVE SMOOTH",
"257 347 OFFCURVE",
"304 265 OFFCURVE",
"304 170 CURVE SMOOTH",
"304 65 OFFCURVE",
"266 -17 OFFCURVE",
"181 -17 CURVE SMOOTH",
"85 -17 OFFCURVE",
"40 95 OFFCURVE"
);
},
{
closed = 1;
nodes = (
"277 510 LINE",
"283 545 LINE",
"556 545 LINE",
"556 510 LINE",
"446 510 LINE",
"445 0 LINE",
"409 0 LINE",
"410 510 LINE"
);
},
{
closed = 1;
nodes = (
"183 -195 LINE",
"409 15 LINE",
"445 0 LINE",
"206 -219 LINE"
);
}
);
width = 659;
}
);
unicode = 0B8F;
userData = {
com.schriftgestaltung.Glyphs.ColorIndex = 6;
public.markColor = "0,0.67,0.91,1";
};
},
{
glyphname = tml_Ka;
layers = (
{
layerId = "D3669537-663F-4203-8192-BEB274270EE9";
name = Light;
paths = (
{
closed = 1;
nodes = (
"417 201 LINE SMOOTH",
"417 98.168 OFFCURVE",
"381.02 2 OFFCURVE",
"238 2 CURVE SMOOTH",
"103.825 2 OFFCURVE",
"52.184 73.731 OFFCURVE",
"51 170 CURVE SMOOTH",
"50.063 244.148 OFFCURVE",
"106.266 302 OFFCURVE",
"199 302 CURVE SMOOTH",
"435 302 LINE SMOOTH",
"516.536 302 OFFCURVE",
"597 273.125 OFFCURVE",
"597 162 CURVE SMOOTH",
"597 79.877 OFFCURVE",
"571.878 12.766 OFFCURVE",
"454 11 CURVE",
"412 11 LINE",
"412 45 LINE",
"456 45 LINE SMOOTH",
"526.509 45 OFFCURVE",
"557 85.993 OFFCURVE",
"557 162 CURVE SMOOTH",
"557 238.323 OFFCURVE",
"509.851 266 OFFCURVE",
"432 266 CURVE SMOOTH",
"197 268 LINE SMOOTH",
"149.37 268 OFFCURVE",
"88 248.094 OFFCURVE",
"88 170 CURVE SMOOTH",
"88 83.504 OFFCURVE",
"143.714 37 OFFCURVE",
"238 37 CURVE SMOOTH",
"336.182 37 OFFCURVE",
"382 103.92 OFFCURVE",
"382 201 CURVE SMOOTH",
"382 490 LINE",
"222 490 LINE",
"222 282 LINE",
"187 282 LINE",
"187 525 LINE",
"517 525 LINE",
"517 490 LINE",
"417 490 LINE"
);
}
);
width = 632;
}
);
unicode = 0B95;
},
{
glyphname = tml_Nga;
layers = (
{
anchors = (
{
name = tml_virama;
position = "{260, 0}";
}
);
layerId = "D3669537-663F-4203-8192-BEB274270EE9";
name = Light;
paths = (
{
closed = 1;
nodes = (
"588 0 LINE",
"588 545 LINE",
"623 545 LINE",
"623 0 LINE"
);
},
{
closed = 1;
nodes = (
"293 0 LINE",
"293 36 LINE",
"600 36 LINE",
"600 0 LINE"
);
},
{
closed = 1;
nodes = (
"298 234 LINE",
"297 273 OFFCURVE",
"302 318 OFFCURVE",
"312 344 CURVE SMOOTH",
"330 392 OFFCURVE",
"358 414 OFFCURVE",
"400 414 CURVE SMOOTH",
"486 414 OFFCURVE",
"518 337 OFFCURVE",
"518 242 CURVE SMOOTH",
"518 87 OFFCURVE",
"454 2 OFFCURVE",
"310 0 CURVE SMOOTH",
"310 35 LINE SMOOTH",
"451 39 OFFCURVE",
"484 136 OFFCURVE",
"484 238 CURVE SMOOTH",
"484 325 OFFCURVE",
"457 380 OFFCURVE",
"399 380 CURVE SMOOTH",
"363 380 OFFCURVE",
"339 343 OFFCURVE",
"328 309 CURVE SMOOTH",
"318 280 OFFCURVE",
"324 267 OFFCURVE",
"324 234 CURVE"
);
},
{
closed = 1;
nodes = (
"90 0 LINE",
"91 545 LINE",
"435 545 LINE",
"435 510 LINE",
"325 510 LINE",
"324 210 LINE",
"288 210 LINE",
"289 510 LINE",
"127 510 LINE",
"126 0 LINE"
);
}
);
width = 667;
}
);
unicode = 0B99;
},
{
glyphname = tml_Nya;
layers = (
{
layerId = "D3669537-663F-4203-8192-BEB274270EE9";
name = Light;
paths = (
{
closed = 1;
nodes = (
"152 248 CURVE SMOOTH",
"152 419 OFFCURVE",
"231 545 OFFCURVE",
"404 545 CURVE SMOOTH",
"403 510 LINE SMOOTH",
"252 510 OFFCURVE",
"189 400 OFFCURVE",
"189 248 CURVE SMOOTH",
"189 116 OFFCURVE",
"220 18 OFFCURVE",
"293 18 CURVE SMOOTH",
"357 18 OFFCURVE",
"380 93 OFFCURVE",
"380 170 CURVE SMOOTH",
"380 235 OFFCURVE",
"354 312 OFFCURVE",
"287 312 CURVE SMOOTH",
"221 312 OFFCURVE",
"186 236 OFFCURVE",
"195 157 CURVE",
"172 183 LINE",
"173 287 OFFCURVE",
"222 347 OFFCURVE",
"287 347 CURVE SMOOTH",
"369 347 OFFCURVE",
"416 265 OFFCURVE",
"416 170 CURVE SMOOTH",
"416 65 OFFCURVE",
"378 -17 OFFCURVE",
"293 -17 CURVE SMOOTH",
"197 -17 OFFCURVE",
"152 95 OFFCURVE"
);
},
{
closed = 1;
nodes = (
"389 510 LINE",
"395 545 LINE",
"668 545 LINE",
"668 510 LINE",
"558 510 LINE",
"557 0 LINE",
"521 0 LINE",
"522 510 LINE"
);
},
{
closed = 1;
nodes = (
"30 242 CURVE SMOOTH",
"30 333 OFFCURVE",
"54 429 OFFCURVE",
"112 531 CURVE",
"142 517 LINE",
"86 421 OFFCURVE",
"64 333 OFFCURVE",
"64 244 CURVE SMOOTH",
"64 -36 OFFCURVE",
"215 -135 OFFCURVE",
"422 -135 CURVE SMOOTH",
"618 -135 OFFCURVE",
"708 15 OFFCURVE",
"708 158 CURVE SMOOTH",
"708 235 OFFCURVE",
"691 300 OFFCURVE",
"638 300 CURVE SMOOTH",
"602 300 OFFCURVE",
"581 276 OFFCURVE",
"570 242 CURVE SMOOTH",
"560 213 OFFCURVE",
"556 177 OFFCURVE",
"556 144 CURVE",
"530 164 LINE",
"529 203 OFFCURVE",
"534 236 OFFCURVE",
"544 262 CURVE SMOOTH",
"562 310 OFFCURVE",
"594 334 OFFCURVE",
"636 334 CURVE SMOOTH",
"716 334 OFFCURVE",
"742 247 OFFCURVE",
"742 162 CURVE SMOOTH",
"742 -33 OFFCURVE",
"624 -171 OFFCURVE",
"422 -171 CURVE SMOOTH",
"269 -171 OFFCURVE",
"31 -119 OFFCURVE"
);
}
);
width = 774;
}
);
unicode = 0B9E;
},
{
color = 6;
glyphname = tml_Tta;
layers = (
{
anchors = (
{
name = tml_virama;
position = "{340, 0}";
}
);
layerId = "D3669537-663F-4203-8192-BEB274270EE9";
name = Light;
paths = (
{
closed = 1;
nodes = (
"70 0 LINE",
"70 545 LINE",
"105 545 LINE",
"105 34 LINE",
"593 34 LINE",
"593 0 LINE"
);
}
);
width = 643;
}
);
unicode = 0B9F;
userData = {
com.schriftgestaltung.Glyphs.ColorIndex = 6;
public.markColor = "0,0.67,0.91,1";
};
},
{
glyphname = tml_Nna;
layers = (
{
layerId = "D3669537-663F-4203-8192-BEB274270EE9";
name = Light;
paths = (
{
closed = 1;
nodes = (
"100 248 CURVE SMOOTH",
"100 422 OFFCURVE",
"179 550 OFFCURVE",
"352 550 CURVE SMOOTH",
"351 514 LINE SMOOTH",
"200 514 OFFCURVE",
"137 402 OFFCURVE",
"137 248 CURVE SMOOTH",
"137 116 OFFCURVE",
"168 18 OFFCURVE",
"241 18 CURVE SMOOTH",
"305 18 OFFCURVE",
"328 93 OFFCURVE",
"328 170 CURVE SMOOTH",
"328 235 OFFCURVE",
"302 312 OFFCURVE",
"235 312 CURVE SMOOTH",
"169 312 OFFCURVE",
"134 236 OFFCURVE",
"143 157 CURVE",
"120 183 LINE",
"121 287 OFFCURVE",
"170 347 OFFCURVE",
"235 347 CURVE SMOOTH",
"317 347 OFFCURVE",
"364 265 OFFCURVE",
"364 170 CURVE SMOOTH",
"364 65 OFFCURVE",
"326 -17 OFFCURVE",
"241 -17 CURVE SMOOTH",
"145 -17 OFFCURVE",
"100 95 OFFCURVE"
);
},
{
closed = 1;
nodes = (
"351 514 CURVE SMOOTH",
"351 550 LINE SMOOTH",
"355 550 OFFCURVE",
"359 550 OFFCURVE",
"363 550 CURVE SMOOTH",
"507 550 OFFCURVE",
"628 436 OFFCURVE",
"628 216 CURVE SMOOTH",
"628 81 OFFCURVE",
"590 -17 OFFCURVE",
"519 -17 CURVE SMOOTH",
"449 -17 OFFCURVE",
"410 83 OFFCURVE",
"410 221 CURVE SMOOTH",
"410 468 OFFCURVE",
"524 545 OFFCURVE",
"650 545 CURVE",
"720 545 OFFCURVE",
"888 507 OFFCURVE",
"888 216 CURVE SMOOTH",
"888 81 OFFCURVE",
"850 -17 OFFCURVE",
"779 -17 CURVE SMOOTH",
"714 -17 OFFCURVE",
"677 83 OFFCURVE",
"677 221 CURVE SMOOTH",
"677 468 OFFCURVE",
"811 545 OFFCURVE",
"960 545 CURVE SMOOTH",
"960 511 LINE SMOOTH",
"837 511 OFFCURVE",
"714 450 OFFCURVE",
"714 221 CURVE SMOOTH",
"714 104 OFFCURVE",
"737 19 OFFCURVE",
"781 19 CURVE SMOOTH",
"829 19 OFFCURVE",
"851 102 OFFCURVE",
"851 216 CURVE SMOOTH",
"851 449 OFFCURVE",
"731 511 OFFCURVE",
"650 511 CURVE",
"548 511 OFFCURVE",
"447 450 OFFCURVE",
"447 221 CURVE SMOOTH",
"447 104 OFFCURVE",
"473 19 OFFCURVE",
"521 19 CURVE SMOOTH",
"569 19 OFFCURVE",
"591 102 OFFCURVE",
"591 216 CURVE SMOOTH",
"591 407 OFFCURVE",
"493 515 OFFCURVE",
"364 515 CURVE SMOOTH",
"360 515 OFFCURVE",
"355 514 OFFCURVE"
);
},
{
closed = 1;
nodes = (
"925 511 LINE",
"937 545 LINE",
"1085 545 LINE",
"1085 511 LINE",
"985 511 LINE",
"985 1 LINE",
"949 1 LINE",
"949 511 LINE"
);
}
);
width = 1115;
}
);
unicode = 0BA3;
},
{
glyphname = tml_Na;
lastChange = "2015-12-01 17:02:05 +0000";
layers = (
{
anchors = (
{
name = tml_virama;
position = "{220, 0}";
}
);
layerId = "D3669537-663F-4203-8192-BEB274270EE9";
name = Light;
paths = (
{
closed = 1;
nodes = (
"123 -292 LINE",
"123 -207 OFFCURVE",
"130 -70 OFFCURVE",
"320 -65 CURVE SMOOTH",
"461 -61 OFFCURVE",
"514 -24 OFFCURVE",
"514 138 CURVE SMOOTH",
"514 225 OFFCURVE",
"494 300 OFFCURVE",
"436 300 CURVE SMOOTH",
"400 300 OFFCURVE",
"379 276 OFFCURVE",
"368 242 CURVE SMOOTH",
"358 213 OFFCURVE",
"354 177 OFFCURVE",
"354 144 CURVE",
"328 164 LINE",
"327 203 OFFCURVE",
"332 236 OFFCURVE",
"342 262 CURVE SMOOTH",
"360 310 OFFCURVE",
"392 334 OFFCURVE",
"434 334 CURVE SMOOTH",
"520 334 OFFCURVE",
"548 237 OFFCURVE",
"548 142 CURVE SMOOTH",
"548 -63 OFFCURVE",
"464 -99 OFFCURVE",
"320 -101 CURVE SMOOTH",
"152 -103 OFFCURVE",
"159 -222 OFFCURVE",
"158 -292 CURVE"
);
},
{
closed = 1;
nodes = (
"60 0 LINE",
"61 545 LINE",
"465 545 LINE",
"465 510 LINE",
"355 510 LINE",
"354 0 LINE",
"318 0 LINE",
"319 510 LINE",
"97 510 LINE",
"96 0 LINE"
);
}
);
width = 593;
}
);
unicode = 0BA8;
},
{
glyphname = tml_Nnna;
layers = (
{
anchors = (
{
name = tml_virama;
position = "{404, 0}";
}
);
layerId = "D3669537-663F-4203-8192-BEB274270EE9";
name = Light;
paths = (
{
closed = 1;
nodes = (
"40 248 CURVE SMOOTH",
"40 422 OFFCURVE",
"119 550 OFFCURVE",
"292 550 CURVE SMOOTH",
"291 514 LINE SMOOTH",
"140 514 OFFCURVE",
"77 402 OFFCURVE",
"77 248 CURVE SMOOTH",
"77 116 OFFCURVE",
"108 18 OFFCURVE",
"181 18 CURVE SMOOTH",
"245 18 OFFCURVE",
"268 93 OFFCURVE",
"268 170 CURVE SMOOTH",
"268 235 OFFCURVE",
"242 312 OFFCURVE",
"175 312 CURVE SMOOTH",
"109 312 OFFCURVE",
"74 236 OFFCURVE",
"83 157 CURVE",
"60 183 LINE",
"61 287 OFFCURVE",
"110 347 OFFCURVE",
"175 347 CURVE SMOOTH",
"257 347 OFFCURVE",
"304 265 OFFCURVE",
"304 170 CURVE SMOOTH",
"304 65 OFFCURVE",
"266 -17 OFFCURVE",
"181 -17 CURVE SMOOTH",
"85 -17 OFFCURVE",
"40 95 OFFCURVE"
);
},
{
closed = 1;
nodes = (
"291 514 CURVE SMOOTH",
"291 550 LINE SMOOTH",
"295 550 OFFCURVE",
"299 550 OFFCURVE",
"303 550 CURVE SMOOTH",
"452 550 OFFCURVE",
"576 436 OFFCURVE",
"576 216 CURVE SMOOTH",
"576 81 OFFCURVE",
"538 -17 OFFCURVE",
"467 -17 CURVE SMOOTH",
"397 -17 OFFCURVE",
"358 83 OFFCURVE",
"358 221 CURVE SMOOTH",
"358 468 OFFCURVE",
"501 545 OFFCURVE",
"660 545 CURVE SMOOTH",
"660 511 LINE SMOOTH",
"527 511 OFFCURVE",
"395 450 OFFCURVE",
"395 221 CURVE SMOOTH",
"395 104 OFFCURVE",
"421 19 OFFCURVE",
"469 19 CURVE SMOOTH",
"517 19 OFFCURVE",
"539 102 OFFCURVE",
"539 216 CURVE SMOOTH",
"539 407 OFFCURVE",
"438 515 OFFCURVE",
"304 515 CURVE SMOOTH",
"300 515 OFFCURVE",
"295 514 OFFCURVE"
);
},
{
closed = 1;
nodes = (
"645 511 LINE",
"657 545 LINE",
"805 545 LINE",
"805 511 LINE",
"705 511 LINE",
"705 1 LINE",
"669 1 LINE",
"669 511 LINE"
);
}
);
width = 835;
}
);
unicode = 0BA9;
},
{
color = 5;
glyphname = tml_Pa;
layers = (
{
anchors = (
{
name = tml_virama;
position = "{220, 0}";
}
);
layerId = "D3669537-663F-4203-8192-BEB274270EE9";
name = Light;
paths = (
{
closed = 1;
nodes = (
"58 0 LINE",
"58 545 LINE",
"94 545 LINE",
"94 34 LINE",
"352 34 LINE",
"352 545 LINE",
"388 545 LINE",
"388 0 LINE"
);
}
);
width = 486;
}
);
unicode = 0BAA;
userData = {
com.schriftgestaltung.Glyphs.ColorIndex = 5;
public.markColor = "0.04,0.57,0.04,1";
};
},
{
glyphname = tml_Ma;
layers = (
{
anchors = (
{
name = tml_virama;
position = "{253, -10}";
}
);
layerId = "D3669537-663F-4203-8192-BEB274270EE9";
name = Light;
paths = (
{
closed = 1;
nodes = (
"234 434 LINE SMOOTH",
"234 521 OFFCURVE",
"272 561 OFFCURVE",
"335 561 CURVE SMOOTH",
"451 562 OFFCURVE",
"501 413 OFFCURVE",
"502 251 CURVE SMOOTH",
"503 79 OFFCURVE",
"463 0 OFFCURVE",
"378 0 CURVE",
"375 35 LINE",
"444 34 OFFCURVE",
"465 124 OFFCURVE",
"465 251 CURVE SMOOTH",
"465 390 OFFCURVE",
"428 525 OFFCURVE",
"336 525 CURVE SMOOTH",
"293 525 OFFCURVE",
"269 493 OFFCURVE",
"269 424 CURVE SMOOTH",
"271 6 LINE",
"236 7 LINE SMOOTH"
);
},
{
closed = 1;
nodes = (
"59 0 CURVE",
"59 545 LINE",
"94 545 LINE",
"94 35 LINE",
"382 35 LINE",
"382 0 LINE",
"274 0 OFFCURVE",
"167 0 OFFCURVE"
);
}
);
width = 572;
}
);
unicode = 0BAE;
},
{
glyphname = tml_Ya;
layers = (
{
anchors = (
{
name = tml_virama;
position = "{336, 0}";
}
);
layerId = "D3669537-663F-4203-8192-BEB274270EE9";
name = Light;
paths = (
{
closed = 1;
nodes = (
"50 130 CURVE SMOOTH",
"50 545 LINE SMOOTH",
"83 545 LINE",
"83 136 LINE SMOOTH",
"83 106 OFFCURVE",
"83 76 OFFCURVE",
"99 53 CURVE SMOOTH",
"114 32 OFFCURVE",
"135 17 OFFCURVE",
"174 17 CURVE SMOOTH",
"246 17 OFFCURVE",
"266 84 OFFCURVE",
"266 192 CURVE SMOOTH",
"289 209 LINE",
"289 59 OFFCURVE",
"267 -16 OFFCURVE",
"174 -16 CURVE SMOOTH",
"118 -16 OFFCURVE",
"86 5 OFFCURVE",
"68 35 CURVE SMOOTH",
"52 60 OFFCURVE",
"50 91 OFFCURVE"
);
},
{
closed = 1;
nodes = (
"266 0 CURVE",
"266 545 LINE",
"302 545 LINE",
"302 34 LINE",
"510 34 LINE",
"510 545 LINE",
"546 545 LINE",
"546 0 LINE",
"453 0 OFFCURVE",
"359 0 OFFCURVE"
);
}
);
width = 606;
}
);
unicode = 0BAF;
},
{
color = 6;
glyphname = tml_Ra;
layers = (
{
anchors = (
{
name = tml_virama;
position = "{206, 0}";
}
);
layerId = "D3669537-663F-4203-8192-BEB274270EE9";
name = Light;
paths = (
{
closed = 1;
nodes = (
"60 0 LINE",
"61 545 LINE",
"465 545 LINE",
"465 510 LINE",
"355 510 LINE",
"354 0 LINE",
"318 0 LINE",
"319 510 LINE",
"97 510 LINE",
"96 0 LINE"
);
},
{
closed = 1;
nodes = (
"92 -195 LINE",
"318 15 LINE",
"354 0 LINE",
"115 -219 LINE"
);
}
);
width = 485;
}
);
unicode = 0BB0;
userData = {
com.schriftgestaltung.Glyphs.ColorIndex = 6;
public.markColor = "0,0.67,0.91,1";
};
},
{
glyphname = tml_La;
layers = (
{
anchors = (
{
name = tml_virama;
position = "{305, 0}";
}
);
layerId = "D3669537-663F-4203-8192-BEB274270EE9";
name = Light;
paths = (
{
closed = 1;
nodes = (
"41 248 CURVE SMOOTH",
"41 426 OFFCURVE",
"102 555 OFFCURVE",
"235 555 CURVE SMOOTH",
"366 555 OFFCURVE",
"393 433 OFFCURVE",
"393 260 CURVE SMOOTH",
"393 254 OFFCURVE",
"393 249 OFFCURVE",
"393 243 CURVE",
"356 257 LINE SMOOTH",
"356 409 OFFCURVE",
"340 520 OFFCURVE",
"234 520 CURVE SMOOTH",
"124 520 OFFCURVE",
"78 406 OFFCURVE",
"78 248 CURVE SMOOTH",
"78 116 OFFCURVE",
"109 18 OFFCURVE",
"182 18 CURVE SMOOTH",
"246 18 OFFCURVE",
"269 93 OFFCURVE",
"269 170 CURVE SMOOTH",
"269 235 OFFCURVE",
"243 312 OFFCURVE",
"176 312 CURVE SMOOTH",
"110 312 OFFCURVE",
"75 236 OFFCURVE",
"84 157 CURVE",
"61 183 LINE",
"62 287 OFFCURVE",
"111 347 OFFCURVE",
"176 347 CURVE SMOOTH",
"258 347 OFFCURVE",
"305 265 OFFCURVE",
"305 170 CURVE SMOOTH",
"305 65 OFFCURVE",
"267 -17 OFFCURVE",
"182 -17 CURVE SMOOTH",
"86 -17 OFFCURVE",
"41 95 OFFCURVE"
);
},
{
closed = 1;
nodes = (
"356 261 CURVE SMOOTH",
"393 251 LINE SMOOTH",
"393 202 OFFCURVE",
"383 25 OFFCURVE",
"472 25 CURVE SMOOTH",
"575.854 25 OFFCURVE",
"582 127.192 OFFCURVE",
"582 249 CURVE SMOOTH",
"582 388 OFFCURVE",
"503 545 OFFCURVE",
"503 545 CURVE",
"539 545 LINE",
"539 545 OFFCURVE",
"618 406 OFFCURVE",
"618 254 CURVE SMOOTH",
"618 129.545 OFFCURVE",
"608.177 -13 OFFCURVE",
"474 -13 CURVE SMOOTH",
"332 -13 OFFCURVE",
"356 198 OFFCURVE"
);
}
);
width = 698;
}
);
unicode = 0BB2;
},
{
color = 6;
glyphname = tml_Lla;
layers = (
{
anchors = (
{
name = tml_virama;
position = "{449, 0}";
}
);
layerId = "D3669537-663F-4203-8192-BEB274270EE9";
name = Light;
paths = (
{
closed = 1;
nodes = (
"93 248 CURVE SMOOTH",
"93 426 OFFCURVE",
"154 555 OFFCURVE",
"287 555 CURVE SMOOTH",
"409 555 OFFCURVE",
"462 434 OFFCURVE",
"461 269 CURVE",
"431 283 LINE SMOOTH",
"431 420 OFFCURVE",
"381 520 OFFCURVE",
"286 520 CURVE SMOOTH",
"176 520 OFFCURVE",
"130 406 OFFCURVE",
"130 248 CURVE SMOOTH",
"130 116 OFFCURVE",
"161 18 OFFCURVE",
"234 18 CURVE SMOOTH",
"298 18 OFFCURVE",
"321 93 OFFCURVE",
"321 170 CURVE SMOOTH",
"321 235 OFFCURVE",
"295 312 OFFCURVE",
"228 312 CURVE SMOOTH",
"162 312 OFFCURVE",
"127 236 OFFCURVE",
"136 157 CURVE",
"113 183 LINE",
"114 287 OFFCURVE",
"163 347 OFFCURVE",
"228 347 CURVE SMOOTH",
"310 347 OFFCURVE",
"357 265 OFFCURVE",
"357 170 CURVE SMOOTH",
"357 65 OFFCURVE",
"319 -17 OFFCURVE",
"234 -17 CURVE SMOOTH",
"138 -17 OFFCURVE",
"93 95 OFFCURVE"
);
},
{
closed = 1;
nodes = (
"430 0 LINE",
"431 545 LINE",
"832 545 LINE",
"832 511 LINE",
"712 511 LINE",
"711 0 LINE",
"675 0 LINE",
"676 511 LINE",
"467 511 LINE",
"466 0 LINE"
);
}
);
width = 892;
}
);
unicode = 0BB3;
userData = {
com.schriftgestaltung.Glyphs.ColorIndex = 6;
public.markColor = "0,0.67,0.91,1";
};
},
{
glyphname = tml_Llla;
layers = (
{
anchors = (
{
name = tml_virama;
position = "{254, 0}";
}
);
layerId = "D3669537-663F-4203-8192-BEB274270EE9";
name = Light;
paths = (
{
closed = 1;
nodes = (
"80 -104 CURVE",
"111 -104 LINE",
"111 -192 OFFCURVE",
"158 -226 OFFCURVE",
"237 -226 CURVE SMOOTH",
"353 -226 OFFCURVE",
"356 -107 OFFCURVE",
"409 -107 CURVE SMOOTH",
"442 -127 LINE",
"373 -127 OFFCURVE",
"375 -260 OFFCURVE",
"237 -260 CURVE SMOOTH",
"153 -260 OFFCURVE",
"80 -223 OFFCURVE"
);
},
{
closed = 1;
nodes = (
"237 13 LINE",
"272 13 LINE",
"272 -13 LINE",
"273 -73 OFFCURVE",
"296 -92 OFFCURVE",
"391 -92 CURVE",
"459 -92 LINE",
"460 -92 LINE",
"460 -127 LINE",
"366 -127 LINE",
"271 -126 OFFCURVE",
"237 -92 OFFCURVE",
"237 -13 CURVE"
);
},
{
closed = 1;
nodes = (
"235 434 LINE SMOOTH",
"235 521 OFFCURVE",
"273 560 OFFCURVE",
"336 561 CURVE SMOOTH",
"452 562 OFFCURVE",
"502 413 OFFCURVE",
"503 251 CURVE SMOOTH",
"504 79 OFFCURVE",
"464 0 OFFCURVE",
"379 0 CURVE",
"376 35 LINE",
"445 34 OFFCURVE",
"466 124 OFFCURVE",
"466 251 CURVE SMOOTH",
"466 391 OFFCURVE",
"429 526 OFFCURVE",
"337 526 CURVE SMOOTH",
"294 526 OFFCURVE",
"270 494 OFFCURVE",
"270 424 CURVE SMOOTH",
"272 6 LINE",
"237 6 LINE SMOOTH"
);
},
{
closed = 1;
nodes = (
"60 0 CURVE",
"60 545 LINE",
"95 545 LINE",
"95 35 LINE",
"383 35 LINE",
"383 0 LINE",
"275 0 OFFCURVE",
"168 0 OFFCURVE"
);
}
);
width = 543;
}
);
unicode = 0BB4;
},
{
color = 5;
glyphname = tml_Va;
layers = (
{
anchors = (
{
name = tml_virama;
position = "{393, 0}";
}
);
layerId = "D3669537-663F-4203-8192-BEB274270EE9";
name = Light;
paths = (
{
closed = 1;
nodes = (
"39 248 CURVE SMOOTH",
"39 426 OFFCURVE",
"100 555 OFFCURVE",
"233 555 CURVE SMOOTH",
"364 555 OFFCURVE",
"431 433 OFFCURVE",
"431 260 CURVE SMOOTH",
"431 254 OFFCURVE",
"431 249 OFFCURVE",
"431 243 CURVE",
"394 257 LINE SMOOTH",
"394 409 OFFCURVE",
"338 520 OFFCURVE",
"232 520 CURVE SMOOTH",
"122 520 OFFCURVE",
"76 406 OFFCURVE",
"76 248 CURVE SMOOTH",
"76 116 OFFCURVE",
"107 18 OFFCURVE",
"180 18 CURVE SMOOTH",
"244 18 OFFCURVE",
"267 93 OFFCURVE",
"267 170 CURVE SMOOTH",
"267 235 OFFCURVE",
"241 312 OFFCURVE",
"174 312 CURVE SMOOTH",
"108 312 OFFCURVE",
"73 236 OFFCURVE",
"82 157 CURVE",
"59 183 LINE",
"60 287 OFFCURVE",
"109 347 OFFCURVE",
"174 347 CURVE SMOOTH",
"256 347 OFFCURVE",
"303 265 OFFCURVE",
"303 170 CURVE SMOOTH",
"303 65 OFFCURVE",
"265 -17 OFFCURVE",
"180 -17 CURVE SMOOTH",
"84 -17 OFFCURVE",
"39 95 OFFCURVE"
);
},
{
closed = 1;
nodes = (
"348 0 LINE",
"348 33 LINE",
"381 112 OFFCURVE",
"394 198 OFFCURVE",
"394 261 CURVE SMOOTH",
"431 251 LINE SMOOTH",
"431 202 OFFCURVE",
"422 121 OFFCURVE",
"390 35 CURVE",
"541 35 LINE",
"541 545 LINE",
"577 545 LINE",
"577 0 LINE"
);
}
);
width = 637;
}
);
unicode = 0BB5;
userData = {
com.schriftgestaltung.Glyphs.ColorIndex = 5;
public.markColor = "0.04,0.57,0.04,1";
};
},
{
glyphname = tml_Sha;
layers = (
{
anchors = (
{
name = tml_virama;
position = "{383, 0}";
}
);
layerId = "D3669537-663F-4203-8192-BEB274270EE9";
name = Light;
paths = (
{
closed = 1;
nodes = (
"441 108 CURVE SMOOTH",
"441 530 LINE SMOOTH",
"477 530 LINE",
"477 108 LINE SMOOTH",
"477 34 OFFCURVE",
"517 23 OFFCURVE",
"537 23 CURVE SMOOTH",
"615 23 OFFCURVE",
"642 131 OFFCURVE",
"642 275 CURVE SMOOTH",
"642 385 OFFCURVE",
"657 511 OFFCURVE",
"517 510 CURVE",
"527 545 LINE",
"652 545 OFFCURVE",
"682 456 OFFCURVE",
"681 275 CURVE SMOOTH",
"680 142 OFFCURVE",
"655 -18 OFFCURVE",
"534 -15 CURVE SMOOTH",
"490 -14 OFFCURVE",
"441 5 OFFCURVE"
);
},
{
closed = 1;
nodes = (
"310 510 LINE",
"310 545 LINE",
"532 545 LINE",
"550 510 LINE"
);
},
{
closed = 1;
nodes = (
"105 148 CURVE SMOOTH",
"105 545 LINE",
"141 545 LINE",
"141 148 LINE SMOOTH",
"141 74 OFFCURVE",
"163 20 OFFCURVE",
"224 20 CURVE SMOOTH",
"280 20 OFFCURVE",
"310 74 OFFCURVE",
"310 148 CURVE SMOOTH",
"310 545 LINE",
"346 545 LINE",
"346 148 LINE SMOOTH",
"346 38 OFFCURVE",
"298 -17 OFFCURVE",
"222 -17 CURVE SMOOTH",
"141 -17 OFFCURVE",
"105 44 OFFCURVE"
);
}
);
width = 811;
}
);
unicode = 0BB6;
},
{
glyphname = tml_Ssa;
layers = (
{
anchors = (
{
name = tml_virama;
position = "{422, 0}";
}
);
layerId = "D3669537-663F-4203-8192-BEB274270EE9";
name = Light;
paths = (
{
closed = 1;
nodes = (
"38 248 CURVE SMOOTH",
"38 426 OFFCURVE",
"99 555 OFFCURVE",
"232 555 CURVE SMOOTH",
"363 555 OFFCURVE",
"430 399 OFFCURVE",
"430 260 CURVE SMOOTH",
"430 174 OFFCURVE",
"422 106 OFFCURVE",
"389 33 CURVE",
"347 0 LINE",
"347 31 LINE",
"377 102 OFFCURVE",
"393 169 OFFCURVE",
"393 257 CURVE SMOOTH",
"393 377 OFFCURVE",
"337 520 OFFCURVE",
"231 520 CURVE SMOOTH",
"121 520 OFFCURVE",
"75 406 OFFCURVE",
"75 248 CURVE SMOOTH",
"75 114 OFFCURVE",
"106 16 OFFCURVE",
"179 16 CURVE SMOOTH",
"243 16 OFFCURVE",
"266 92 OFFCURVE",
"266 170 CURVE SMOOTH",
"266 235 OFFCURVE",
"240 313 OFFCURVE",
"173 313 CURVE SMOOTH",
"107 313 OFFCURVE",
"72 236 OFFCURVE",
"81 157 CURVE",
"57 187 LINE",
"58 289 OFFCURVE",
"107 347 OFFCURVE",
"173 347 CURVE SMOOTH",
"255 347 OFFCURVE",
"302 265 OFFCURVE",
"302 170 CURVE SMOOTH",
"302 65 OFFCURVE",
"264 -17 OFFCURVE",
"179 -17 CURVE SMOOTH",
"83 -17 OFFCURVE",
"38 95 OFFCURVE"
);
},
{
closed = 1;
nodes = (
"468 421 CURVE SMOOTH",
"468 482 OFFCURVE",
"492 556 OFFCURVE",
"557 556 CURVE SMOOTH",
"632 556 OFFCURVE",
"644 482 OFFCURVE",
"644 430 CURVE",
"608 430 LINE",
"609 497 OFFCURVE",
"585 522 OFFCURVE",
"558 522 CURVE SMOOTH",
"520 523 OFFCURVE",
"503 465 OFFCURVE",
"503 417 CURVE SMOOTH",
"503 326 OFFCURVE",
"551 260 OFFCURVE",
"618 261 CURVE SMOOTH",
"704 262 OFFCURVE",
"738 324 OFFCURVE",
"738 405 CURVE SMOOTH",
"764 395 LINE SMOOTH",
"764 309 OFFCURVE",
"719 226 OFFCURVE",
"618 226 CURVE SMOOTH",
"553 226 OFFCURVE",
"468 283 OFFCURVE"
);
},
{
closed = 1;
nodes = (
"608 -152 LINE",
"608 434 LINE",
"644 434 LINE",
"644 -152 LINE"
);
},
{
closed = 1;
nodes = (
"347 -1 LINE",
"347 31 LINE",
"392 33 LINE",
"738 33 LINE",
"738 455 LINE",
"774 455 LINE",
"774 -1 LINE"
);
}
);
width = 834;
}
);
unicode = 0BB7;
},
{
glyphname = tml_Seven;
layers = (
{
layerId = "D3669537-663F-4203-8192-BEB274270EE9";
name = Light;
paths = (
{
closed = 1;
nodes = (
"40 248 CURVE SMOOTH",
"40 419 OFFCURVE",
"119 545 OFFCURVE",
"292 545 CURVE SMOOTH",
"291 510 LINE SMOOTH",
"140 510 OFFCURVE",
"77 400 OFFCURVE",
"77 248 CURVE SMOOTH",
"77 116 OFFCURVE",
"108 18 OFFCURVE",
"181 18 CURVE SMOOTH",
"245 18 OFFCURVE",
"268 93 OFFCURVE",
"268 170 CURVE SMOOTH",
"268 235 OFFCURVE",
"242 312 OFFCURVE",
"175 312 CURVE SMOOTH",
"109 312 OFFCURVE",
"74 236 OFFCURVE",
"83 157 CURVE",
"60 183 LINE",
"61 287 OFFCURVE",
"110 347 OFFCURVE",
"175 347 CURVE SMOOTH",
"257 347 OFFCURVE",
"304 265 OFFCURVE",
"304 170 CURVE SMOOTH",
"304 65 OFFCURVE",
"266 -17 OFFCURVE",
"181 -17 CURVE SMOOTH",
"85 -17 OFFCURVE",
"40 95 OFFCURVE"
);
},
{
closed = 1;
nodes = (
"278 510 LINE",
"284 545 LINE",
"456 545 LINE",
"455 0 LINE",
"419 0 LINE",
"420 510 LINE"
);
}
);
width = 516;
}
);
unicode = 0BED;
},
{
color = 6;
glyphname = tml_Day;
layers = (
{
anchors = (
{
name = tml_virama;
position = "{395, 0}";
}
);
layerId = "D3669537-663F-4203-8192-BEB274270EE9";
name = Light;
paths = (
{
closed = 1;
nodes = (
"350 0 LINE",
"350 30 LINE SMOOTH",
"392 35 LINE SMOOTH",
"521 35 LINE",
"521 0 LINE"
);
},
{
closed = 1;
nodes = (
"41 248 CURVE SMOOTH",
"41 426 OFFCURVE",
"102 555 OFFCURVE",
"235 555 CURVE SMOOTH",
"351 555 OFFCURVE",
"435 443 OFFCURVE",
"433 263 CURVE SMOOTH",
"432 165 OFFCURVE",
"412 87 OFFCURVE",
"387 18 CURVE",
"350 30 LINE",
"377 99 OFFCURVE",
"396 217 OFFCURVE",
"396 268 CURVE SMOOTH",
"396 390 OFFCURVE",
"349 520 OFFCURVE",
"234 520 CURVE SMOOTH",
"124 520 OFFCURVE",
"78 406 OFFCURVE",
"78 248 CURVE SMOOTH",
"78 116 OFFCURVE",
"109 18 OFFCURVE",
"182 18 CURVE SMOOTH",
"246 18 OFFCURVE",
"269 93 OFFCURVE",
"269 170 CURVE SMOOTH",
"269 235 OFFCURVE",
"243 312 OFFCURVE",
"176 312 CURVE SMOOTH",
"110 312 OFFCURVE",
"75 236 OFFCURVE",
"84 157 CURVE",
"61 183 LINE",
"62 287 OFFCURVE",
"111 347 OFFCURVE",
"176 347 CURVE SMOOTH",
"258 347 OFFCURVE",
"305 265 OFFCURVE",
"305 170 CURVE SMOOTH",
"305 65 OFFCURVE",
"267 -17 OFFCURVE",
"182 -17 CURVE SMOOTH",
"86 -17 OFFCURVE",
"41 95 OFFCURVE"
);
}
);
width = 541;
}
);
unicode = 0BF3;
userData = {
com.schriftgestaltung.Glyphs.ColorIndex = 6;
public.markColor = "0,0.67,0.91,1";
};
},
{
glyphname = tml_Virama;
layers = (
{
anchors = (
{
name = _tml_virama;
position = "{0, 0}";
}
);
layerId = "D3669537-663F-4203-8192-BEB274270EE9";
name = Light;
paths = (
{
closed = 1;
nodes = (
"-31 682 CURVE SMOOTH",
"-31 699 OFFCURVE",
"-17 713 OFFCURVE",
"0 713 CURVE SMOOTH",
"17 713 OFFCURVE",
"31 699 OFFCURVE",
"31 682 CURVE SMOOTH",
"31 665 OFFCURVE",
"17 651 OFFCURVE",
"0 651 CURVE SMOOTH",
"-17 651 OFFCURVE",
"-31 665 OFFCURVE"
);
}
);
width = 0;
}
);
unicode = 0BCD;
},
{
color = 6;
glyphname = tml_MatraAa;
layers = (
{
layerId = "D3669537-663F-4203-8192-BEB274270EE9";
name = Light;
paths = (
{
closed = 1;
nodes = (
"60 0 LINE",
"61 545 LINE",
"465 545 LINE",
"465 510 LINE",
"355 510 LINE",
"354 0 LINE",
"318 0 LINE",
"319 510 LINE",
"97 510 LINE",
"96 0 LINE"
);
}
);
width = 485;
}
);
unicode = 0BBE;
userData = {
com.schriftgestaltung.Glyphs.ColorIndex = 6;
public.markColor = "0,0.67,0.91,1";
};
},
{
glyphname = tml_MatraU;
layers = (
{
layerId = "D3669537-663F-4203-8192-BEB274270EE9";
name = Light;
paths = (
{
closed = 1;
nodes = (
"-133 510 LINE SMOOTH",
"123 510 LINE SMOOTH",
"131 510 OFFCURVE",
"167 511 OFFCURVE",
"167 436 CURVE SMOOTH",
"167 410 OFFCURVE",
"161 368 OFFCURVE",
"126 368 CURVE SMOOTH",
"94 368 OFFCURVE",
"83 407 OFFCURVE",
"83 436 CURVE SMOOTH",
"83 470 OFFCURVE",
"94 510 OFFCURVE",
"125 510 CURVE",
"122 536 LINE",
"66 536 OFFCURVE",
"46 489 OFFCURVE",
"46 436 CURVE SMOOTH",
"46 384 OFFCURVE",
"73 333 OFFCURVE",
"126 333 CURVE SMOOTH",
"175 333 OFFCURVE",
"204 369 OFFCURVE",
"204 436 CURVE SMOOTH",
"204 530.27 OFFCURVE",
"153 545 OFFCURVE",
"107 545 CURVE SMOOTH",
"-133 545 LINE SMOOTH"
);
}
);
width = 229;
}
);
unicode = 0BC1;
},
{
glyphname = tml_MatraUu;
layers = (
{
layerId = "D3669537-663F-4203-8192-BEB274270EE9";
name = Light;
paths = (
{
closed = 1;
nodes = (
"-133 510 LINE SMOOTH",
"103 510 LINE SMOOTH",
"126.455 510 OFFCURVE",
"177 511 OFFCURVE",
"177 436 CURVE SMOOTH",
"177 410 OFFCURVE",
"171 368 OFFCURVE",
"136 368 CURVE SMOOTH",
"104 368 OFFCURVE",
"93 407 OFFCURVE",
"93 436 CURVE SMOOTH",
"93 504.797 OFFCURVE",
"121.804 543.002 OFFCURVE",
"167 543.003 CURVE SMOOTH",
"236.543 543.004 OFFCURVE",
"253 484.162 OFFCURVE",
"253 439 CURVE SMOOTH",
"253 378.726 OFFCURVE",
"214 323 OFFCURVE",
"214 323 CURVE",
"248 305 LINE",
"248 305 OFFCURVE",
"290 367.076 OFFCURVE",
"290 439 CURVE SMOOTH",
"290 494.625 OFFCURVE",
"267.959 575.007 OFFCURVE",
"168 575.003 CURVE SMOOTH",
"104.917 575 OFFCURVE",
"56 529.672 OFFCURVE",
"56 436 CURVE SMOOTH",
"56 384 OFFCURVE",
"83 333 OFFCURVE",
"136 333 CURVE SMOOTH",
"185 333 OFFCURVE",
"214 369 OFFCURVE",
"214 436 CURVE SMOOTH",
"214 530.27 OFFCURVE",
"157.742 545 OFFCURVE",
"107 545 CURVE SMOOTH",
"-133 545 LINE SMOOTH"
);
}
);
width = 335;
}
);
unicode = 0BC2;
},
{
glyphname = tml_MatraE;
layers = (
{
layerId = "D3669537-663F-4203-8192-BEB274270EE9";
name = Light;
paths = (
{
closed = 1;
nodes = (
"39 248 CURVE SMOOTH",
"39 426 OFFCURVE",
"100 555 OFFCURVE",
"233 555 CURVE SMOOTH",
"422.226 555 OFFCURVE",
"413 371 OFFCURVE",
"413 371 CURVE",
"412 0 LINE",
"376 0 LINE",
"377 353 LINE",
"377 490 OFFCURVE",
"307 520 OFFCURVE",
"232 520 CURVE SMOOTH",
"122 520 OFFCURVE",
"76 406 OFFCURVE",
"76 248 CURVE SMOOTH",
"76 116 OFFCURVE",
"107 18 OFFCURVE",
"180 18 CURVE SMOOTH",
"244 18 OFFCURVE",
"267 93 OFFCURVE",
"267 170 CURVE SMOOTH",
"267 235 OFFCURVE",
"241 312 OFFCURVE",
"174 312 CURVE SMOOTH",
"108 312 OFFCURVE",
"73 236 OFFCURVE",
"82 157 CURVE",
"59 183 LINE",
"60 287 OFFCURVE",
"109 347 OFFCURVE",
"174 347 CURVE SMOOTH",
"256 347 OFFCURVE",
"303 265 OFFCURVE",
"303 170 CURVE SMOOTH",
"303 65 OFFCURVE",
"265 -17 OFFCURVE",
"180 -17 CURVE SMOOTH",
"84 -17 OFFCURVE",
"39 95 OFFCURVE"
);
}
);
width = 458;
}
);
unicode = 0BC6;
},
{
glyphname = tml_MatraEe;
layers = (
{
layerId = "D3669537-663F-4203-8192-BEB274270EE9";
name = Light;
paths = (
{
closed = 1;
nodes = (
"60 274 CURVE",
"60.868 474.566 OFFCURVE",
"170.221 554.981 OFFCURVE",
"297 556 CURVE SMOOTH",
"362.075 556.523 OFFCURVE",
"408.836 511.413 OFFCURVE",
"408 424 CURVE SMOOTH",
"407.221 342.463 OFFCURVE",
"365.93 293 OFFCURVE",
"309 293 CURVE SMOOTH",
"254.349 293 OFFCURVE",
"212 342.905 OFFCURVE",
"212 424 CURVE SMOOTH",
"212 506.719 OFFCURVE",
"258.305 544.271 OFFCURVE",
"317 545 CURVE",
"306 521 LINE",
"270.741 521 OFFCURVE",
"250 479.4 OFFCURVE",
"250 422 CURVE SMOOTH",
"250 365 OFFCURVE",
"279.517 327 OFFCURVE",
"309 327 CURVE SMOOTH",
"345 327 OFFCURVE",
"372 369.146 OFFCURVE",
"372 423 CURVE SMOOTH",
"372 465.318 OFFCURVE",
"354.069 521 OFFCURVE",
"307 521 CURVE SMOOTH",
"167.669 521 OFFCURVE",
"96.57 420.494 OFFCURVE",
"96.742 276 CURVE SMOOTH",
"96.934 115.285 OFFCURVE",
"174.533 21 OFFCURVE",
"312 21 CURVE SMOOTH",
"354 21 OFFCURVE",
"370 75.546 OFFCURVE",
"370 117 CURVE SMOOTH",
"370 181.976 OFFCURVE",
"345.143 215 OFFCURVE",
"312 215 CURVE SMOOTH",
"284.483 215 OFFCURVE",
"255 185.539 OFFCURVE",
"255 119 CURVE SMOOTH",
"255 61.089 OFFCURVE",
"267.341 21 OFFCURVE",
"311 21 CURVE",
"312 -3 LINE",
"238.021 -2.873 OFFCURVE",
"216 61.05 OFFCURVE",
"216 120 CURVE SMOOTH",
"216 204.018 OFFCURVE",
"262.292 249 OFFCURVE",
"311 249 CURVE SMOOTH",
"366.78 249 OFFCURVE",
"407.263 203.646 OFFCURVE",
"408 121 CURVE SMOOTH",
"408.789 32.586 OFFCURVE",
"363.485 -14.164 OFFCURVE",
"312 -14 CURVE SMOOTH",
"148.691 -13.48 OFFCURVE",
"60.039 90.19 OFFCURVE"
);
}
);
width = 471;
}
);
unicode = 0BC7;
userData = {
com.fontlab.hintData = {
hhints = (
{
position = -134;
width = 36;
},
{
position = 160;
width = 35;
},
{
position = 298;
width = 35;
},
{
position = 492;
width = 37;
}
);
vhints = (
{
position = 166;
width = 37;
},
{
position = 535;
width = 37;
},
{
position = 681;
width = 36;
},
{
position = 681;
width = 8;
}
);
};
};
},
